/* XPM */
static char * battery3_xpm[] = {
"12 12 50 1",
" 	c None",
".	c #B8B8B8",
"+	c #A9A9A9",
"@	c #A3A3A3",
"#	c #545454",
"$	c #C0C0C0",
"%	c #DDDDDD",
"&	c #7C7C7C",
"*	c #5C5C5C",
"=	c #656565",
"-	c #878787",
";	c #6B6B6B",
">	c #6C6C6C",
",	c #696969",
"'	c #9B9B9B",
")	c #5A5A5A",
"!	c #636363",
"~	c #B4B4B4",
"{	c #D3D3D3",
"]	c #CBCBCB",
"^	c #9D9D9D",
"/	c #626262",
"(	c #8D8D8D",
"_	c #979797",
":	c #898989",
"<	c #7F7F7F",
"[	c #818181",
"}	c #646464",
"|	c #868686",
"1	c #9E9E9E",
"2	c #949494",
"3	c #888888",
"4	c #404040",
"5	c #848484",
"6	c #969696",
"7	c #6F6F6F",
"8	c #505050",
"9	c #3F3F3F",
"0	c #424242",
"a	c #737373",
"b	c #565656",
"c	c #414141",
"d	c #434343",
"e	c #9A9A9A",
"f	c #757575",
"g	c #575757",
"h	c #515151",
"i	c #777777",
"j	c #525252",
"k	c #353535",
"     .+@    ",
"    #$%&*   ",
"   =-;>,')  ",
"   !~{]]^)  ",
"   /(_:<[)  ",
"   }|123#4  ",
"   !567890  ",
"   !5_abcd  ",
"   !5_abcd  ",
"   !|efgcd  ",
"   h>i!jdk  ",
"            "};
