/* XPM */
static char * battery2_xpm[] = {
"12 12 62 1",
" 	c None",
".	c #B1B9C4",
"+	c #A6AAAE",
"@	c #A3A3A5",
"#	c #9C4700",
"$	c #C0C0C2",
"%	c #D0DFF1",
"&	c #957857",
"*	c #9E5100",
"=	c #A45C09",
"-	c #C27F24",
";	c #B06109",
">	c #B1610F",
",	c #AF5F00",
"'	c #CE9445",
")	c #9A5000",
"!	c #A35903",
"~	c #EBAD54",
"{	c #F3CF96",
"]	c #EBC794",
"^	c #EDC794",
"/	c #DC9538",
"(	c #995000",
"_	c #9E5907",
":	c #E58100",
"<	c #EE8C00",
"[	c #DC7E00",
"}	c #D27300",
"|	c #D67500",
"1	c #915206",
"2	c #636466",
"3	c #B38134",
"4	c #FA9200",
"5	c #EF8800",
"6	c #DC7D00",
"7	c #6D512C",
"8	c #3D4145",
"9	c #616368",
"0	c #7C8593",
"a	c #8898AF",
"b	c #617088",
"c	c #445264",
"d	c #3A3F47",
"e	c #424244",
"f	c #626366",
"g	c #838486",
"h	c #969799",
"i	c #727375",
"j	c #555658",
"k	c #414142",
"l	c #434344",
"m	c #555657",
"n	c #848688",
"o	c #999A9C",
"p	c #747577",
"q	c #565758",
"r	c #515154",
"s	c #6B6C6E",
"t	c #767779",
"u	c #626365",
"v	c #515253",
"w	c #353536",
"     .+@    ",
"    #$%&*   ",
"   =-;>,')  ",
"   !~{]^/(  ",
"   _:<[}|1  ",
"   2345678  ",
"   90abcde  ",
"   fghijkl  ",
"   fghimkl  ",
"   fnopqkl  ",
"   rstuvlw  ",
"            "};
