/* XPM */
static char * battery2_xpm[] = {
"8 12 60 1",
" 	c None",
".	c #0A0A0A",
"+	c #4C4D4C",
"@	c #2D2D2D",
"#	c #080808",
"$	c #0D0D0D",
"%	c #101010",
"&	c #070707",
"*	c #161616",
"=	c #141414",
"-	c #5E5E5E",
";	c #9B9B9B",
">	c #C2C2C2",
",	c #9E9E9E",
"'	c #7A7A7A",
")	c #505050",
"!	c #212121",
"~	c #5A5A5A",
"{	c #949494",
"]	c #BABABA",
"^	c #989798",
"/	c #757575",
"(	c #4D4D4C",
"_	c #202020",
":	c #939393",
"<	c #979797",
"[	c #757475",
"}	c #20201F",
"|	c #0C0E1A",
"1	c #363C59",
"2	c #5D6383",
"3	c #767B9E",
"4	c #5F6485",
"5	c #484D6C",
"6	c #2C324F",
"7	c #131526",
"8	c #0A0C1B",
"9	c #2C345B",
"0	c #4E5581",
"a	c #636B99",
"b	c #505783",
"c	c #3D436C",
"d	c #252C52",
"e	c #0F122A",
"f	c #2B335A",
"g	c #4E5580",
"h	c #636B98",
"i	c #505782",
"j	c #3C436C",
"k	c #3C436B",
"l	c #252A52",
"m	c #636A98",
"n	c #4F5682",
"o	c #171822",
"p	c #212540",
"q	c #393D5B",
"r	c #3A3E5C",
"s	c #2C304D",
"t	c #1B203A",
"u	c #131425",
"  .++.  ",
"@#$%$.&*",
"=-;>,')!",
"=~{]^/(_",
"=~:]<[+}",
"|1234567",
"890abcde",
"8fghijde",
"8fghikle",
"8fghijde",
"8f0mnjde",
"opq5rstu"};
