/* XPM */
static char * cogs2_xpm[] = {
"12 12 60 1",
" 	c None",
".	c #898C8E",
"+	c #ABAEAD",
"@	c #B0B2B0",
"#	c #CACCC7",
"$	c #727676",
"%	c #959797",
"&	c #BEC0BC",
"*	c #A2A5A0",
"=	c #AEB1AD",
"-	c #CDCFC9",
";	c #CBCDC8",
">	c #949796",
",	c #A3A6A6",
"'	c #D8DBD3",
")	c #7E8081",
"!	c #848787",
"~	c #B1B4B1",
"{	c #DADDD6",
"]	c #E1E4DC",
"^	c #AAAEAA",
"/	c #707475",
"(	c #969999",
"_	c #A0A2A1",
":	c #5E6263",
"<	c #CBCDC9",
"[	c #C7C9C4",
"}	c #A8AAA8",
"|	c #8C8F90",
"1	c #898D8D",
"2	c #C9CBC8",
"3	c #A2A6A1",
"4	c #909492",
"5	c #D0D3CC",
"6	c #7B7F7E",
"7	c #B3B5B3",
"8	c #909391",
"9	c #898B8A",
"0	c #AEB1AE",
"a	c #B6B9B5",
"b	c #A1A3A4",
"c	c #DCE0D9",
"d	c #A7A9A7",
"e	c #C5C6C5",
"f	c #8C8F8B",
"g	c #8F9390",
"h	c #8B8F8D",
"i	c #8F9392",
"j	c #C8CBC5",
"k	c #DDE0D8",
"l	c #A7ABA7",
"m	c #656A6A",
"n	c #C0C2BD",
"o	c #C7CAC5",
"p	c #8F918E",
"q	c #787C7B",
"r	c #6E7171",
"s	c #717473",
"t	c #484B4B",
"u	c #929491",
"     .      ",
"   +@#$     ",
"  %&*=-     ",
"   ;>,')    ",
"  !~{]^/(   ",
"    _:!<[}| ",
"     123456 ",
"   7890abcd ",
"  efghijkl  ",
"  mnop q r  ",
"  stu       ",
"            "};
