/* XPM */
static char * cogs_xpm[] = {
"12 12 12 1",
" 	c None",
".	c #C9C9C9",
"+	c #C8C8C8",
"@	c #C7C7C7",
"#	c #C6C6C6",
"$	c #C4C4C4",
"%	c #C3C3C3",
"&	c #C2C2C2",
"*	c #C1C1C1",
"=	c #C0C0C0",
"-	c #BFBFBF",
";	c #BEBEBE",
"            ",
"       .++. ",
"       +  +@",
"       @  @ ",
"  #  # #### ",
"  $$$$      ",
"%$    $$    ",
" & %% &     ",
" & ** &     ",
"===   ==    ",
"  ==-=      ",
"  ;  ;      "};
