/* XPM */
static char * cpu_xpm[] = {
"12 12 100 2",
"  	c None",
". 	c #228921",
"+ 	c #389A38",
"@ 	c #379837",
"# 	c #389537",
"$ 	c #63AF63",
"% 	c #4D8F4D",
"& 	c #477F47",
"* 	c #4B814B",
"= 	c #467C46",
"- 	c #3D6B3D",
"; 	c #518B51",
"> 	c #4A894A",
", 	c #368F34",
"' 	c #539B53",
") 	c #555155",
"! 	c #5E5A5E",
"~ 	c #5D595D",
"{ 	c #5E5B5E",
"] 	c #5F5B5F",
"^ 	c #545054",
"/ 	c #529B53",
"( 	c #348931",
"_ 	c #4E8F4E",
": 	c #383338",
"< 	c #3B3B3B",
"[ 	c #3C3C3C",
"} 	c #302A30",
"| 	c #4D8E4D",
"1 	c #31822E",
"2 	c #356335",
"3 	c #3B373B",
"4 	c #414141",
"5 	c #424242",
"6 	c #353135",
"7 	c #346334",
"8 	c #2F7C2B",
"9 	c #448244",
"0 	c #393439",
"a 	c #474747",
"b 	c #464646",
"c 	c #343034",
"d 	c #448144",
"e 	c #2D7427",
"f 	c #356835",
"g 	c #373437",
"h 	c #4E4E4E",
"i 	c #4C4C4C",
"j 	c #4B4B4B",
"k 	c #4A4A4A",
"l 	c #363236",
"m 	c #2A6B24",
"n 	c #2E5C2E",
"o 	c #383438",
"p 	c #555555",
"q 	c #515151",
"r 	c #525252",
"s 	c #505050",
"t 	c #535353",
"u 	c #383538",
"v 	c #286221",
"w 	c #2D5E2E",
"x 	c #323332",
"y 	c #4E4D4E",
"z 	c #5A5A5A",
"A 	c #585858",
"B 	c #5B5B5B",
"C 	c #626262",
"D 	c #3A363A",
"E 	c #2F5E2F",
"F 	c #275A1E",
"G 	c #386131",
"H 	c #254826",
"I 	c #2F302F",
"J 	c #393539",
"K 	c #393639",
"L 	c #3A373A",
"M 	c #3A383A",
"N 	c #2D2B2D",
"O 	c #29582A",
"P 	c #28561F",
"Q 	c #96CB80",
"R 	c #365C2D",
"S 	c #214922",
"T 	c #224822",
"U 	c #204320",
"V 	c #1B3A1C",
"W 	c #244D25",
"X 	c #1B391C",
"Y 	c #204420",
"Z 	c #437B44",
"` 	c #26541D",
" .	c #1A350D",
"..	c #28501D",
"+.	c #254D1B",
"@.	c #244D1B",
"#.	c #244C1B",
"$.	c #244C1A",
"%.	c #264E1C",
"&.	c #1B380E",
". + @ @ @ @ @ @ @ @ + . ",
"# $ % & * = - ; - > $ # ",
", ' ) ! ~ ! { ~ ] ^ / , ",
"( _ : < < < < < [ } | ( ",
"1 2 3 4 4 4 4 4 5 6 7 1 ",
"8 9 0 a b b b b a c d 8 ",
"e f g h i i j k i l f e ",
"m n o p q q r s t u n m ",
"v w x y z A B C C D E v ",
"F G H I J u K L M N O F ",
"P Q R S T U V W X Y Z ` ",
" ...+.@.#.#.$.@.$.#.%.&."};
