/* XPM */
static char * cpu2_xpm[] = {
"14 12 78 1",
" 	c None",
".	c #515151",
"+	c #474747",
"@	c #4F4F4F",
"#	c #555555",
"$	c #595959",
"%	c #919191",
"&	c #ACACAC",
"*	c #929292",
"=	c #444444",
"-	c #000000",
";	c #737373",
">	c #B4B4B4",
",	c #C5C5C5",
"'	c #B9B9B9",
")	c #BBBBBB",
"!	c #A9A9A9",
"~	c #6B6B6B",
"{	c #1D1D1D",
"]	c #8D8D8D",
"^	c #4B4B4B",
"/	c #959595",
"(	c #C9C9C9",
"_	c #AFAFAF",
":	c #A5A5A5",
"<	c #7F7F7F",
"[	c #818181",
"}	c #808080",
"|	c #777777",
"1	c #353535",
"2	c #484848",
"3	c #252525",
"4	c #C1C1C1",
"5	c #616161",
"6	c #565656",
"7	c #A0A0A0",
"8	c #A6A6A6",
"9	c #828282",
"0	c #8C8C8C",
"a	c #494949",
"b	c #191919",
"c	c #575757",
"d	c #666666",
"e	c #969696",
"f	c #A4A4A4",
"g	c #414141",
"h	c #4A4A4A",
"i	c #6E6E6E",
"j	c #7C7C7C",
"k	c #696969",
"l	c #363636",
"m	c #0D0D0D",
"n	c #5A5A5A",
"o	c #343434",
"p	c #9E9E9E",
"q	c #787878",
"r	c #4C4C4C",
"s	c #3E3E3E",
"t	c #3B3B3B",
"u	c #2A2A2A",
"v	c #222222",
"w	c #323232",
"x	c #3C3C3C",
"y	c #838383",
"z	c #B2B2B2",
"A	c #282828",
"B	c #111111",
"C	c #333333",
"D	c #383838",
"E	c #757575",
"F	c #3A3A3A",
"G	c #161616",
"H	c #3D3D3D",
"I	c #2F2F2F",
"J	c #6A6A6A",
"K	c #393939",
"L	c #313131",
"M	c #373737",
"    .+@       ",
"  #$%&*@=     ",
"-;>,')!*~@{   ",
".]^/(_:<[}|12 ",
"34&5678}<}90ab",
"cd<efghijka1lm",
" n9op9qr1lstuv",
" w.xy|rz2AvB3 ",
" CD .EFeG2 Hw ",
"  2 IJK9   ^L ",
"     I x      ",
"       M      "};
