/* XPM */
static char * cpu3_xpm[] = {
"14 12 67 1",
" 	c None",
".	c #5F5F5F",
"+	c #585858",
"@	c #5D5D5D",
"#	c #626262",
"$	c #646464",
"%	c #8C8C8C",
"&	c #9F9F9F",
"*	c #8D8D8D",
"=	c #565656",
"-	c #262626",
";	c #777777",
">	c #A5A5A5",
",	c #B1B1B1",
"'	c #A8A8A8",
")	c #A9A9A9",
"!	c #9D9D9D",
"~	c #717171",
"{	c #3A3A3A",
"]	c #898989",
"^	c #5A5A5A",
"/	c #8F8F8F",
"(	c #B3B3B3",
"_	c #A1A1A1",
":	c #9A9A9A",
"<	c #7F7F7F",
"[	c #818181",
"}	c #808080",
"|	c #7A7A7A",
"1	c #4B4B4B",
"2	c #404040",
"3	c #AEAEAE",
"4	c #6A6A6A",
"5	c #969696",
"6	c #9B9B9B",
"7	c #888888",
"8	c #595959",
"9	c #373737",
"0	c #636363",
"a	c #6E6E6E",
"b	c #999999",
"c	c #535353",
"d	c #737373",
"e	c #7D7D7D",
"f	c #707070",
"g	c #4C4C4C",
"h	c #2F2F2F",
"i	c #656565",
"j	c #4A4A4A",
"k	c #959595",
"l	c #5B5B5B",
"m	c #515151",
"n	c #4F4F4F",
"o	c #434343",
"p	c #3E3E3E",
"q	c #494949",
"r	c #505050",
"s	c #828282",
"t	c #A3A3A3",
"u	c #424242",
"v	c #323232",
"w	c #4D4D4D",
"x	c #787878",
"y	c #4E4E4E",
"z	c #353535",
"A	c #474747",
"B	c #484848",
"    .+@       ",
"  #$%&*@=     ",
"-;>,')!*~@{   ",
".]^/(_:<[}|1+ ",
"23&4#56}<}[789",
"0a</bc^def81gh",
" i[jk[|l1gmnop",
" q.rs|lt+upv2 ",
" jw .xy/z+ mq ",
"  + Afy[   ^B ",
"     A r      ",
"       g      "};
