/* XPM */
static char * emacs2_xpm[] = {
"12 12 70 1",
" 	c None",
".	c #5B5B5B",
"+	c #5E5E5E",
"@	c #595959",
"#	c #616161",
"$	c #707070",
"%	c #7F7F7F",
"&	c #979797",
"*	c #A9A9A9",
"=	c #A7A7A7",
"-	c #575757",
";	c #5A5A5A",
">	c #626262",
",	c #A3A3A3",
"'	c #EFEFEF",
")	c #DEDEDE",
"!	c #CFCFCF",
"~	c #C9C9C9",
"{	c #F0F0F0",
"]	c #777777",
"^	c #5C5C5C",
"/	c #6E6E6E",
"(	c #999999",
"_	c #E7E7E7",
":	c #C7C7C7",
"<	c #B1B1B1",
"[	c #ACACAC",
"}	c #A6A6A6",
"|	c #5D5D5D",
"1	c #686868",
"2	c #D8D8D8",
"3	c #9E9E9E",
"4	c #7C7C7C",
"5	c #6B6B6B",
"6	c #4F4F4F",
"7	c #4C4C4C",
"8	c #666666",
"9	c #B0B0B0",
"0	c #D9D9D9",
"a	c #E5E5E5",
"b	c #D6D6D6",
"c	c #8B8B8B",
"d	c #5F5F5F",
"e	c #414141",
"f	c #393939",
"g	c #EDEDED",
"h	c #D2D2D2",
"i	c #868686",
"j	c #818181",
"k	c #7B7B7B",
"l	c #4A4A4A",
"m	c #2E2E2E",
"n	c #C3C3C3",
"o	c #878787",
"p	c #848484",
"q	c #474747",
"r	c #303030",
"s	c #606060",
"t	c #9B9B9B",
"u	c #C8C8C8",
"v	c #3B3B3B",
"w	c #727272",
"x	c #AAAAAA",
"y	c #9A9A9A",
"z	c #333333",
"A	c #C6C6C6",
"B	c #9D9D9D",
"C	c #242424",
"D	c #555555",
"E	c #323232",
"    .++@    ",
"  @#$%&*=-  ",
" ;>,')!~{]  ",
" ^/(_:<[}>. ",
"|+1%&234567 ",
"|890a:bcdef ",
"|(ghcijklm@ ",
"+dnhoopqr^+ ",
" sdt!u8vw#| ",
" s>%xyzABs  ",
"  ;#1C-sD   ",
"    Ef      "};
