/* XPM */
static char * emacs_xpm[] = {
"12 12 98 2",
"  	c None",
". 	c #5854AB",
"+ 	c #5B57AD",
"@ 	c #5A57AD",
"# 	c #5652AB",
"$ 	c #5752AA",
"% 	c #5D5AAC",
"& 	c #6D6AB4",
"* 	c #7D7ABC",
"= 	c #9592C8",
"- 	c #A7A5D2",
"; 	c #A6A3D2",
"> 	c #5350A9",
", 	c #5853A8",
"' 	c #5F5CAD",
") 	c #A19FCE",
"! 	c #EEEEF6",
"~ 	c #DEDDEE",
"{ 	c #CECDE5",
"] 	c #C9C7E3",
"^ 	c #F1EFF7",
"/ 	c #7471B8",
"( 	c #5955A9",
"_ 	c #6A68B2",
": 	c #9795C9",
"< 	c #E7E6F2",
"[ 	c #C6C5E1",
"} 	c #B0AED6",
"| 	c #AAA8D3",
"1 	c #A4A2D0",
"2 	c #5855A0",
"3 	c #5956A9",
"4 	c #5B57AA",
"5 	c #6562B0",
"6 	c #7C7ABB",
"7 	c #9593C8",
"8 	c #D7D6EA",
"9 	c #9C9ACC",
"0 	c #7977BA",
"a 	c #6865B2",
"b 	c #4C4997",
"c 	c #4A496C",
"d 	c #6360AE",
"e 	c #AEADD5",
"f 	c #D8D7EB",
"g 	c #E4E4F1",
"h 	c #C6C5E2",
"i 	c #D5D4E9",
"j 	c #8986C2",
"k 	c #5B59A1",
"l 	c #3E3E65",
"m 	c #37356D",
"n 	c #ECEDF6",
"o 	c #D0D0E6",
"p 	c #8886C1",
"q 	c #8281BE",
"r 	c #7E7CBC",
"s 	c #7776B9",
"t 	c #484773",
"u 	c #2B2A5D",
"v 	c #5652A2",
"w 	c #5C58AA",
"x 	c #C2C1E0",
"y 	c #D0D0E7",
"z 	c #8482C0",
"A 	c #8382BF",
"B 	c #807FBE",
"C 	c #444376",
"D 	c #2D2C5F",
"E 	c #5956A3",
"F 	c #5A57AA",
"G 	c #5C5AAB",
"H 	c #5B59AA",
"I 	c #9897C9",
"J 	c #CECDE6",
"K 	c #C7C6E2",
"L 	c #63638F",
"M 	c #383861",
"N 	c #706EA5",
"O 	c #5E5BAC",
"P 	c #5A56A9",
"Q 	c #5C59AC",
"R 	c #5F5CAC",
"S 	c #A8A7D2",
"T 	c #9897BB",
"U 	c #303056",
"V 	c #C5C5D1",
"W 	c #9C99CC",
"X 	c #5C59AB",
"Y 	c #57558F",
"Z 	c #5E5BA6",
"` 	c #6462AD",
" .	c #21205A",
"..	c #545294",
"+.	c #5D59A9",
"@.	c #525093",
"#.	c #2F2F56",
"$.	c #373752",
"        . + @ #         ",
"    $ % & * = - ; >     ",
"  , ' ) ! ~ { ] ^ /     ",
"  ( _ : < [ } | 1 ' 2   ",
"3 4 5 6 7 8 9 0 a b c   ",
"3 d e f g h i j k l m   ",
"3 : n o p q r s t u v   ",
"4 w x y z A B C D E F   ",
"  G H I J K L M N O P   ",
"  Q R 6 S T U V W X     ",
"    Y Z `  ...+.@.      ",
"        #.$.            "};
