/* XPM */
static char * exp_xpm[] = {
"12 12 111 2",
"  	c None",
". 	c #524F46",
"+ 	c #6B6A64",
"@ 	c #6A6964",
"# 	c #5A5951",
"$ 	c #7E7E79",
"% 	c #626260",
"& 	c #3F4449",
"* 	c #363E49",
"= 	c #333D47",
"- 	c #3D434A",
"; 	c #444646",
"> 	c #767674",
", 	c #626460",
"' 	c #292A2B",
") 	c #1D2936",
"! 	c #354861",
"~ 	c #384B64",
"{ 	c #384C64",
"] 	c #2F3E50",
"^ 	c #111518",
"/ 	c #555856",
"( 	c #373A3B",
"_ 	c #162332",
": 	c #243955",
"< 	c #223855",
"[ 	c #253B59",
"} 	c #253B57",
"| 	c #223755",
"1 	c #1C3250",
"2 	c #172B44",
"3 	c #22252A",
"4 	c #434440",
"5 	c #373734",
"6 	c #21272E",
"7 	c #162940",
"8 	c #42443C",
"9 	c #9C8650",
"0 	c #877648",
"a 	c #776944",
"b 	c #9C864E",
"c 	c #B59955",
"d 	c #565442",
"e 	c #0B1624",
"f 	c #414445",
"g 	c #333637",
"h 	c #1C252E",
"i 	c #172A42",
"j 	c #101D2F",
"k 	c #776635",
"l 	c #99813F",
"m 	c #07152B",
"n 	c #776532",
"o 	c #5B4E27",
"p 	c #665E41",
"q 	c #0F1D2E",
"r 	c #353939",
"s 	c #2D2F2E",
"t 	c #252C33",
"u 	c #15283D",
"v 	c #172330",
"w 	c #584B21",
"x 	c #A28630",
"y 	c #1F2321",
"z 	c #6B5924",
"A 	c #333835",
"B 	c #141F2B",
"C 	c #383A3B",
"D 	c #20211F",
"E 	c #3A3E40",
"F 	c #111D2D",
"G 	c #2F3028",
"H 	c #363624",
"I 	c #333121",
"J 	c #534A23",
"K 	c #4E4623",
"L 	c #2A3235",
"M 	c #14253A",
"N 	c #22282E",
"O 	c #363839",
"P 	c #444647",
"Q 	c #2A2E33",
"R 	c #0B192C",
"S 	c #13243C",
"T 	c #11233C",
"U 	c #122338",
"V 	c #0F1720",
"W 	c #484B4C",
"X 	c #1A1C1B",
"Y 	c #171614",
"Z 	c #7E8283",
"` 	c #383B3E",
" .	c #0B1420",
"..	c #132132",
"+.	c #121E30",
"@.	c #0D1825",
"#.	c #11151A",
"$.	c #555959",
"%.	c #3E4040",
"&.	c #0F0D0B",
"*.	c #686B6B",
"=.	c #6B6E6E",
"-.	c #55524D",
";.	c #7E7974",
">.	c #525455",
",.	c #6D7070",
"'.	c #3E403F",
").	c #22211D",
"!.	c #2E2C27",
"~.	c #35322F",
"{.	c #22211F",
"        . + @ #         ",
"    $ % & * = - ; >     ",
"  , ' ) ! ~ { ! ] ^ /   ",
"  ( _ : < [ } | 1 2 3 4 ",
"5 6 7 8 9 0 a b c d e f ",
"g h i j k l m n o p q r ",
"s t u v w x y z A 7 B C ",
"D E F G H I J K L M N O ",
"  P Q R S S T T U V W X ",
"  Y Z `  ...+.@.#.$.%.  ",
"    &.*.=.-.;.>.,.'.    ",
"        ).!.~.{.        "};
