/* XPM */
static char * exp2_xpm[] = {
"12 12 57 1",
" 	c None",
".	c #777777",
"+	c #8B8B8B",
"@	c #7E7E7E",
"#	c #9B9B9B",
"$	c #878787",
"%	c #717171",
"&	c #6D6D6D",
"*	c #6B6B6B",
"=	c #707070",
"-	c #969696",
";	c #888888",
">	c #5D5D5D",
",	c #5C5C5C",
"'	c #767676",
")	c #787878",
"!	c #4C4C4C",
"~	c #686868",
"{	c #585858",
"]	c #6A6A6A",
"^	c #6C6C6C",
"/	c #666666",
"(	c #5F5F5F",
"_	c #5A5A5A",
":	c #6F6F6F",
"<	c #656565",
"[	c #5B5B5B",
"}	c #5E5E5E",
"|	c #6E6E6E",
"1	c #979797",
"2	c #848484",
"3	c #A2A2A2",
"4	c #4E4E4E",
"5	c #595959",
"6	c #555555",
"7	c #8F8F8F",
"8	c #505050",
"9	c #7D7D7D",
"0	c #7C7C7C",
"a	c #545454",
"b	c #676767",
"c	c #606060",
"d	c #8D8D8D",
"e	c #565656",
"f	c #737373",
"g	c #616161",
"h	c #525252",
"i	c #757575",
"j	c #4D4D4D",
"k	c #9E9E9E",
"l	c #575757",
"m	c #7F7F7F",
"n	c #474747",
"o	c #7B7B7B",
"p	c #999999",
"q	c #919191",
"r	c #636363",
"    .++@    ",
"  #$%&*=%-  ",
" ;>,'))'&!@ ",
" ~{*]&^]/(_:",
"<[}|1+2-3.4=",
"<5}6@789|0ab",
"c},{*def<}6~",
"6*6}(>]~g[[b",
" %ch[[__54ih",
" jk]jle8jm& ",
"  nd7op0q&  ",
"    6>r6    "};
