/* XPM */
static char * pomodoro2_xpm[] = {
"11 12 58 1",
" 	c None",
".	c #424242",
"+	c #585858",
"@	c #303030",
"#	c #414141",
"$	c #4C4C4C",
"%	c #616161",
"&	c #525252",
"*	c #282828",
"=	c #383838",
"-	c #3A3A3A",
";	c #757575",
">	c #3D3D3D",
",	c #545454",
"'	c #7D7D7D",
")	c #686868",
"!	c #5A5A5A",
"~	c #6D6D6D",
"{	c #3E3E3E",
"]	c #4F4F4F",
"^	c #4D4D4D",
"/	c #565656",
"(	c #9D9D9D",
"_	c #A1A1A1",
":	c #5C5C5C",
"<	c #363636",
"[	c #696969",
"}	c #444444",
"|	c #626262",
"1	c #909090",
"2	c #8A8A8A",
"3	c #818181",
"4	c #6F6F6F",
"5	c #9A9A9A",
"6	c #8C8C8C",
"7	c #353535",
"8	c #646464",
"9	c #6A6A6A",
"0	c #6B6B6B",
"a	c #6E6E6E",
"b	c #717171",
"c	c #6C6C6C",
"d	c #919191",
"e	c #979797",
"f	c #323232",
"g	c #676767",
"h	c #969696",
"i	c #959595",
"j	c #535353",
"k	c #A9A9A9",
"l	c #3F3F3F",
"m	c #595959",
"n	c #848484",
"o	c #949494",
"p	c #404040",
"q	c #797979",
"r	c #434343",
"s	c #575757",
"           ",
"    .      ",
"   +@#$%&  ",
" *=--;>,') ",
" !~{]^/((_:",
"<[}|1_23456",
"7890a9bbcde",
"fg099099chi",
" j)09009~kg",
" lm[0099nop",
"  $mg[~4q+ ",
"   r&s!,p  "};
