/* XPM */
static char * pomodoro_xpm[] = {
"11 12 80 1",
" 	c None",
".	c #2F6420",
"+	c #B00000",
"@	c #483D19",
"#	c #713012",
"$	c #6E7920",
"%	c #B53A0E",
"&	c #944010",
"*	c #41390F",
"=	c #5C4315",
"-	c #43591C",
";	c #235420",
">	c #4CBB30",
",	c #624C18",
"'	c #991D0F",
")	c #EE1C0D",
"!	c #C91707",
"~	c #B40700",
"{	c #D42806",
"]	c #685014",
"^	c #94390B",
"/	c #864014",
"(	c #8E4E1E",
"_	c #E76054",
":	c #E36258",
"<	c #EF6353",
"[	c #AF190A",
"}	c #6C0600",
"|	c #D11601",
"1	c #783C10",
"2	c #C31801",
"3	c #E44D3D",
"4	c #E5665D",
"5	c #BA6A5A",
"6	c #C94B39",
"7	c #D61A08",
"8	c #E06555",
"9	c #ED3F2C",
"0	c #6A0400",
"a	c #C81901",
"b	c #D51500",
"c	c #D61800",
"d	c #D51E08",
"e	c #D51400",
"f	c #D8220B",
"g	c #D8210A",
"h	c #D61A02",
"i	c #DC5846",
"j	c #EF523F",
"k	c #650400",
"l	c #CE1500",
"m	c #D71800",
"n	c #D51700",
"o	c #D61700",
"p	c #DE604F",
"q	c #F04D3A",
"r	c #A60F00",
"s	c #D11700",
"t	c #D51800",
"u	c #D71C04",
"v	c #E8796A",
"w	c #B92515",
"x	c #7E0900",
"y	c #B21100",
"z	c #D31700",
"A	c #DB412D",
"B	c #EC503C",
"C	c #800B01",
"D	c #980C00",
"E	c #CE1600",
"F	c #DA1800",
"G	c #DF1700",
"H	c #E4260F",
"I	c #B10E00",
"J	c #860A00",
"K	c #A40F00",
"L	c #AE1000",
"M	c #B41100",
"N	c #A90F00",
"O	c #800900",
"           ",
"    .      ",
"   +@#$%&  ",
" *=-;>,')! ",
" ~{]^/(_:<[",
"}|123456789",
"0abcdefghij",
"klmnnonnhpq",
" rsctcctuvw",
" xyzccnbABC",
"  DyEzFGHI ",
"   JKLMNO  "};
