/* XPM */
static char * ram2_xpm[] = {
"16 12 96 2",
"  	c None",
". 	c #3C7037",
"+ 	c #386F34",
"@ 	c #366E32",
"# 	c #316D35",
"$ 	c #387035",
"% 	c #C3D2B2",
"& 	c #C0CFAF",
"* 	c #C0CFB0",
"= 	c #C0D0B0",
"- 	c #376F33",
"; 	c #AFC59C",
"> 	c #568433",
", 	c #568633",
"' 	c #578833",
") 	c #588934",
"! 	c #578733",
"~ 	c #578735",
"{ 	c #578734",
"] 	c #A7C191",
"^ 	c #5C8C38",
"/ 	c #B1AAB8",
"( 	c #8C8790",
"_ 	c #8E8992",
": 	c #B2ABB8",
"< 	c #5C8F37",
"[ 	c #B2ABB9",
"} 	c #386F35",
"| 	c #9EBB86",
"1 	c #60933D",
"2 	c #9B969F",
"3 	c #434146",
"4 	c #464548",
"5 	c #5F973B",
"6 	c #9C96A0",
"7 	c #396F36",
"8 	c #95B87C",
"9 	c #659A43",
"0 	c #88838C",
"a 	c #4A4A4D",
"b 	c #4D4D4F",
"c 	c #88848B",
"d 	c #669E41",
"e 	c #89838D",
"f 	c #8DB472",
"g 	c #6AA049",
"h 	c #74707B",
"i 	c #504F54",
"j 	c #525255",
"k 	c #6CA548",
"l 	c #74707C",
"m 	c #397037",
"n 	c #83B068",
"o 	c #6DA44F",
"p 	c #5E5868",
"q 	c #514E59",
"r 	c #525059",
"s 	c #5F5968",
"t 	c #6FA94E",
"u 	c #53505A",
"v 	c #534F59",
"w 	c #615A6A",
"x 	c #377037",
"y 	c #75AC5E",
"z 	c #66A551",
"A 	c #589146",
"B 	c #599447",
"C 	c #5A9547",
"D 	c #589247",
"E 	c #66A751",
"F 	c #5A9447",
"G 	c #5F984A",
"H 	c #679A4C",
"I 	c #69984D",
"J 	c #347037",
"K 	c #EEA762",
"L 	c #FFECA7",
"M 	c #E0A15D",
"N 	c #FFECA6",
"O 	c #E1A25D",
"P 	c #FFEBA6",
"Q 	c #FFEEA7",
"R 	c #EEA863",
"S 	c #326F36",
"T 	c #397138",
"U 	c #357238",
"V 	c #D5914D",
"W 	c #FFF0A9",
"X 	c #C78A48",
"Y 	c #FFEFA9",
"Z 	c #FFF0AA",
"` 	c #357138",
" .	c #3B7239",
"..	c #306E35",
"+.	c #2F6E35",
"@.	c #3B7139",
". + @ @ @ @ @ @ @ @ @ @ @ @ @ # ",
"$ % & * = = = = = = = = = = = # ",
"- ; > , ' ) ' ! ~ ! ' ) ' { ; # ",
"+ ] ^ / ( _ ( : < : ( _ ( [ ] # ",
"} | 1 2 3 4 3 2 5 2 3 4 3 6 | # ",
"7 8 9 0 a b a c d c a b a e 8 # ",
"7 f g h i j i h k h i j i l f # ",
"m n o p q r q s t s q u v w n # ",
"x y z A B C B D E D F G H I y # ",
"J K L M N O N M P M Q R S T # # ",
"U V W X Y X Y X Y X Z V `       ",
" .` ..+.+.+.+.+.+.+...` @.      "};
