/* XPM */
static char * ram3_xpm[] = {
"16 12 127 2",
"  	c None",
". 	c #167F15",
"+ 	c #2E922D",
"@ 	c #2B902A",
"# 	c #2F952F",
"$ 	c #2D912C",
"% 	c #2D912D",
"& 	c #2D922C",
"* 	c #2F932E",
"= 	c #2B902B",
"- 	c #2F952E",
"; 	c #2B912B",
"> 	c #30902F",
", 	c #52A552",
"' 	c #559255",
") 	c #8CB98C",
"! 	c #416641",
"~ 	c #5CA95C",
"{ 	c #5AA35A",
"] 	c #6E946E",
"^ 	c #4C834C",
"/ 	c #7DB57D",
"( 	c #55A655",
"_ 	c #446844",
": 	c #62A462",
"< 	c #7FA77F",
"[ 	c #50A450",
"} 	c #248021",
"| 	c #549C54",
"1 	c #3A373A",
"2 	c #3B3B3B",
"3 	c #386438",
"4 	c #364136",
"5 	c #384738",
"6 	c #305330",
"7 	c #248121",
"8 	c #5EAE5F",
"9 	c #3A363A",
"0 	c #3D3D3D",
"a 	c #3E3E3E",
"b 	c #447E44",
"c 	c #3E503E",
"d 	c #3D503D",
"e 	c #457F45",
"f 	c #21721C",
"g 	c #5DA45E",
"h 	c #393639",
"i 	c #414141",
"j 	c #547E54",
"k 	c #465146",
"l 	c #424F42",
"m 	c #5F815F",
"n 	c #5DA45D",
"o 	c #22721C",
"p 	c #2A7725",
"q 	c #387838",
"r 	c #3D3A3D",
"s 	c #454545",
"t 	c #464646",
"u 	c #2E5A2E",
"v 	c #344034",
"w 	c #364436",
"x 	c #285028",
"y 	c #286F22",
"z 	c #458445",
"A 	c #3B383B",
"B 	c #4A4A4A",
"C 	c #4C784C",
"D 	c #425042",
"E 	c #4B4B4B",
"F 	c #3F4D3F",
"G 	c #578157",
"H 	c #276620",
"I 	c #346934",
"J 	c #3E3C3E",
"K 	c #305130",
"L 	c #363E36",
"M 	c #4C4C4C",
"N 	c #2E482E",
"O 	c #265E1C",
"P 	c #306A30",
"Q 	c #282728",
"R 	c #242524",
"S 	c #202120",
"T 	c #2C592C",
"U 	c #2B3B2B",
"V 	c #222322",
"W 	c #202220",
"X 	c #2D3C2D",
"Y 	c #2B592B",
"Z 	c #212221",
"` 	c #212321",
" .	c #2A292A",
"..	c #25561A",
"+.	c #2F6831",
"@.	c #275929",
"#.	c #28592A",
"$.	c #255527",
"%.	c #2B612D",
"&.	c #295D2B",
"*.	c #275729",
"=.	c #255628",
"-.	c #316A33",
";.	c #377837",
">.	c #285B2B",
",.	c #265728",
"'.	c #2C602E",
").	c #397C39",
"!.	c #24561A",
"~.	c #0E2C02",
"{.	c #779428",
"].	c #738D2A",
"^.	c #768F2C",
"/.	c #76902C",
"(.	c #6E8825",
"_.	c #688220",
":.	c #607A19",
"<.	c #45640B",
"[.	c #7B9930",
"}.	c #7B982D",
"|.	c #4B661D",
"1.	c #4C671D",
"2.	c #48631C",
"3.	c #455F1A",
"4.	c #425B19",
"5.	c #304810",
"6.	c #4D681E",
". + + @ # $ % & * = % - % ; + . ",
"> , ' ) ! ~ { ] ^ / ( _ : < [ > ",
"} | 1 2 2 3 4 2 2 5 6 2 2 1 | 7 ",
"  8 9 0 a b c a a d e a 0 9 8   ",
"f g h i i j k i i l m i i h n o ",
"p q r s t u v t t w x t s r q p ",
"y z A B B C D E E F G B B A z y ",
"H I J E E K L M M 4 N E E J I H ",
"O P Q R S T U V W X Y Z `  .P O ",
"..+.@.#.$.%.&.*.=.-.;.>.,.'.).!.",
"~.{.].^./.].(._.:.<.  [./.}.    ",
"  |.|.1.1.|.2.3.4.5.  6.1.6.    "};
