/* XPM */
static char * ram3_xpm[] = {
"16 12 74 1",
" 	c None",
".	c #616161",
"+	c #757575",
"@	c #737373",
"#	c #787878",
"$	c #747474",
"%	c #767676",
"&	c #8D8D8D",
"*	c #818181",
"=	c #ACACAC",
"-	c #5B5B5B",
";	c #939393",
">	c #8E8E8E",
",	c #898989",
"'	c #A5A5A5",
")	c #8F8F8F",
"!	c #5E5E5E",
"~	c #919191",
"{	c #9C9C9C",
"]	c #8C8C8C",
"^	c #666666",
"/	c #878787",
"(	c #383838",
"_	c #3B3B3B",
":	c #575757",
"<	c #3E3E3E",
"[	c #434343",
"}	c #494949",
"|	c #979797",
"1	c #373737",
"2	c #3D3D3D",
"3	c #6D6D6D",
"4	c #4B4B4B",
"5	c #6E6E6E",
"6	c #909090",
"7	c #414141",
"8	c #727272",
"9	c #4E4E4E",
"0	c #777777",
"a	c #454545",
"b	c #464646",
"c	c #4D4D4D",
"d	c #404040",
"e	c #5A5A5A",
"f	c #393939",
"g	c #4A4A4A",
"h	c #6B6B6B",
"i	c #4C4C4C",
"j	c #545454",
"k	c #484848",
"l	c #3C3C3C",
"m	c #595959",
"n	c #272727",
"o	c #252525",
"p	c #212121",
"q	c #363636",
"r	c #232323",
"s	c #222222",
"t	c #292929",
"u	c #474747",
"v	c #585858",
"w	c #525252",
"x	c #656565",
"y	c #515151",
"z	c #696969",
"A	c #868686",
"B	c #808080",
"C	c #838383",
"D	c #7B7B7B",
"E	c #8B8B8B",
"F	c #8A8A8A",
"G	c #5C5C5C",
"H	c #3F3F3F",
"I	c #5D5D5D",
".++@#$++%@+#+$+.",
"+&*=-;>,@')!~{]+",
"^/(__:<__[}__(/^",
" |12<34<<45<21| ",
"-61778977407716-",
".^_abc2bbdaba_^.",
"e8fgghi44}+ggf8e",
"je244klii<7442ej",
"cmnopiqrp(isstmc",
"uv44uw9}kexc}yzu",
"rABCCBD+3: ECF  ",
" --GG-vjyH IGI  "};
