/* XPM */
static char * scope_xpm[] = {
"12 12 70 1",
" 	c None",
".	c #C0C0C0",
"+	c #AAAAAA",
"@	c #9C9C9C",
"#	c #9C9A9A",
"$	c #9B9A9A",
"%	c #9A9A99",
"&	c #939394",
"*	c #949495",
"=	c #AAAAAB",
"-	c #BCBCBC",
";	c #5D5D5D",
">	c #6F6E6F",
",	c #65827A",
"'	c #606764",
")	c #49494B",
"!	c #404045",
"~	c #494951",
"{	c #57575B",
"]	c #BDBDBC",
"^	c #B5B5B5",
"/	c #5A595A",
"(	c #6C7270",
"_	c #65998A",
":	c #515D5B",
"<	c #464A51",
"[	c #515E62",
"}	c #575764",
"|	c #5E5E64",
"1	c #B5B5B4",
"2	c #AEACAD",
"3	c #56615E",
"4	c #62A692",
"5	c #66CEAF",
"6	c #506465",
"7	c #5FB39D",
"8	c #5EAB98",
"9	c #8DBBB9",
"0	c #5F5D66",
"a	c #ACACAC",
"b	c #A6A6A6",
"c	c #525554",
"d	c #515957",
"e	c #516A66",
"f	c #64D4B5",
"g	c #5D7E7D",
"h	c #626472",
"i	c #6A747D",
"j	c #63626A",
"k	c #A4A4A4",
"l	c #9D9D9D",
"m	c #6B6B6B",
"n	c #505050",
"o	c #585157",
"p	c #616068",
"q	c #62636A",
"r	c #63636B",
"s	c #77777B",
"t	c #9C9C9B",
"u	c #585858",
"v	c #8C8C8C",
"w	c #8C8D8C",
"x	c #868686",
"y	c #858585",
"z	c #8B8B8A",
"A	c #8A8A8A",
"B	c #0B931C",
"C	c #000000",
"D	c #002400",
"E	c #2AB438",
"            ",
" .+@#$%&*=. ",
" -;>,')!~{] ",
" ^/(_:<[}|1 ",
" 234567890a ",
" bcdefghijk ",
" lmn{opqrst ",
" uvwvxyzzAu ",
"            ",
"     BB     ",
"   CDEEDC   ",
"            "};
