/* XPM */
static char * tux_xpm[] = {
"12 12 60 1",
" 	c None",
".	c #343434",
"+	c #0A0A0A",
"@	c #656565",
"#	c #32343A",
"$	c #30323A",
"%	c #3C3D3E",
"&	c #AA8E2F",
"*	c #B1942F",
"=	c #454131",
"-	c #E1B51C",
";	c #E6BA24",
">	c #5F5331",
",	c #969799",
"'	c #D6D3CF",
")	c #F2EFEC",
"!	c #A1A2A5",
"~	c #212121",
"{	c #9A9A9A",
"]	c #FFFFFF",
"^	c #FEFEFF",
"/	c #E4E4E4",
"(	c #252525",
"_	c #1C1C1C",
":	c #737476",
"<	c #E5E5E5",
"[	c #FAFAFA",
"}	c #6B6B6C",
"|	c #0E0E0E",
"1	c #776728",
"2	c #FBFCFF",
"3	c #EEEEEE",
"4	c #FFFFFD",
"5	c #797461",
"6	c #060910",
"7	c #F6CC32",
"8	c #F3C62C",
"9	c #9B8D57",
"0	c #F0F1F2",
"a	c #F7EDCF",
"b	c #BA9213",
"c	c #94730C",
"d	c #FED030",
"e	c #FFD230",
"f	c #D1AC28",
"g	c #E4E1D7",
"h	c #EAEAEB",
"i	c #B2A68A",
"j	c #F5C61B",
"k	c #FFD42C",
"l	c #FCD54F",
"m	c #DCBA4E",
"n	c #E6BC35",
"o	c #E7B41A",
"p	c #857D6D",
"q	c #6E6E6F",
"r	c #54431C",
"s	c #DAA919",
"t	c #E5BF49",
"u	c #E8E6E4",
"     .+@    ",
"     #$%    ",
"     &*=    ",
"     -;>    ",
"    ,')!~   ",
"    {]^/(_  ",
"   :<[]]}|  ",
"   123]456  ",
"  7890]abc  ",
"  defghijkl ",
"  mnopqrst  ",
"            "};
