/* XPM */
static char * tux2_xpm[] = {
"12 12 51 1",
" 	c None",
".	c #343434",
"+	c #0A0A0A",
"@	c #656565",
"#	c #353535",
"$	c #3D3D3D",
"%	c #787878",
"&	c #7C7C7C",
"*	c #919191",
"=	c #979797",
"-	c #4C4C4C",
";	c #D3D3D3",
">	c #EFEFEF",
",	c #A3A3A3",
"'	c #212121",
")	c #9A9A9A",
"!	c #FFFFFF",
"~	c #FEFEFE",
"{	c #E4E4E4",
"]	c #252525",
"^	c #1C1C1C",
"/	c #747474",
"(	c #E5E5E5",
"_	c #FAFAFA",
":	c #6B6B6B",
"<	c #0E0E0E",
"[	c #575757",
"}	c #FDFDFD",
"|	c #EEEEEE",
"1	c #6F6F6F",
"2	c #A7A7A7",
"3	c #A2A2A2",
"4	c #808080",
"5	c #F1F1F1",
"6	c #E6E6E6",
"7	c #757575",
"8	c #5C5C5C",
"9	c #AAAAAA",
"0	c #ABABAB",
"a	c #8C8C8C",
"b	c #DFDFDF",
"c	c #EAEAEA",
"d	c #A1A1A1",
"e	c #9D9D9D",
"f	c #B5B5B5",
"g	c #929292",
"h	c #7A7A7A",
"i	c #6E6E6E",
"j	c #3C3C3C",
"k	c #898989",
"l	c #A4A4A4",
"     .+@    ",
"     #.$    ",
"     %&$    ",
"     *=-    ",
"    =;>,'   ",
"    )!~{]^  ",
"   /(_!!:<  ",
"   [}|!~1+  ",
"  2345!678  ",
"  90abcde9f ",
"  deghijkl  ",
"            "};
