/* XPM */
static char * tux3_xpm[] = {
"12 12 52 1",
" 	c None",
".	c #343434",
"+	c #0A0A0A",
"@	c #656565",
"#	c #363636",
"$	c #353535",
"%	c #3D3D3D",
"&	c #6C6C6C",
"*	c #707070",
"=	c #3B3B3B",
"-	c #7E7E7E",
";	c #858585",
">	c #484848",
",	c #979797",
"'	c #D2D2D2",
")	c #EFEFEF",
"!	c #A3A3A3",
"~	c #212121",
"{	c #9A9A9A",
"]	c #FFFFFF",
"^	c #FEFEFE",
"/	c #E4E4E4",
"(	c #252525",
"_	c #1C1C1C",
":	c #747474",
"<	c #E5E5E5",
"[	c #FAFAFA",
"}	c #6B6B6B",
"|	c #0E0E0E",
"1	c #4F4F4F",
"2	c #FDFDFD",
"3	c #EEEEEE",
"4	c #6D6D6D",
"5	c #0B0B0B",
"6	c #949494",
"7	c #8F8F8F",
"8	c #797979",
"9	c #F1F1F1",
"0	c #E3E3E3",
"a	c #666666",
"b	c #505050",
"c	c #7C7C7C",
"d	c #DDDDDD",
"e	c #EAEAEA",
"f	c #9E9E9E",
"g	c #888888",
"h	c #959595",
"i	c #A5A5A5",
"j	c #8D8D8D",
"k	c #808080",
"l	c #6E6E6E",
"m	c #383838",
"     .+@    ",
"     #$%    ",
"     &*=    ",
"     -;>    ",
"    ,')!~   ",
"    {]^/(_  ",
"   :<[]]}|  ",
"   123]^45  ",
"  6789]0ab  ",
"  ,,cdefghi ",
"  hjk8lm8,  ",
"            "};
