/* XPM */
static char * updown_xpm[] = {
"12 12 41 1",
" 	c None",
".	c #C3C3C3",
"+	c #F4F4F4",
"@	c #B0B0B0",
"#	c #BABABA",
"$	c #B3B3B3",
"%	c #C4C4C4",
"&	c #FFFFFF",
"*	c #FCFCFC",
"=	c #DFDFDF",
"-	c #F3F3F3",
";	c #E7E7E7",
">	c #C5C5C5",
",	c #E0E0E0",
"'	c #8B8B8B",
")	c #919191",
"!	c #F2F2F2",
"~	c #E4E4E4",
"{	c #C7C7C7",
"]	c #7B7B7B",
"^	c #F0F0F0",
"/	c #E1E1E1",
"(	c #C8C8C8",
"_	c #7E7E7E",
":	c #7D7D7D",
"<	c #F6F6F6",
"[	c #EFEFEF",
"}	c #E2E2E2",
"|	c #8D8D8D",
"1	c #B4B4B4",
"2	c #CACACA",
"3	c #F9F9F9",
"4	c #DADADA",
"5	c #BBBBBB",
"6	c #B1B1B1",
"7	c #EAEAEA",
"8	c #7C7C7C",
"9	c #ADADAD",
"0	c #F5F5F5",
"a	c #A7A7A7",
"b	c #A0A0A0",
"            ",
"  .+@  #$   ",
" %&*=  -;   ",
"#>,&@')!~   ",
"  {*]  ^/   ",
"  (*_  ^/   ",
"  %&:  ^/   ",
"  ><:  [}   ",
"  %-|123456 ",
"  %78 90^a  ",
"  b8@  >1   ",
"            "};
