/* XPM */
static char * updown3_xpm[] = {
"12 12 38 1",
" 	c None",
".	c #7A7A7A",
"+	c #979797",
"@	c #6F6F6F",
"#	c #3E3E3E",
"$	c #3C3C3C",
"%	c #A3A3A3",
"&	c #9C9C9C",
"*	c #8C8C8C",
"=	c #525252",
"-	c #4E4E4E",
";	c #747474",
">	c #7B7B7B",
",	c #9F9F9F",
"'	c #6E6E6E",
")	c #575757",
"!	c #4B4B4B",
"~	c #515151",
"{	c #4D4D4D",
"]	c #7C7C7C",
"^	c #9D9D9D",
"/	c #4C4C4C",
"(	c #7D7D7D",
"_	c #4F4F4F",
":	c #A1A1A1",
"<	c #9A9A9A",
"[	c #989898",
"}	c #3F3F3F",
"|	c #434343",
"1	c #545454",
"2	c #4A4A4A",
"3	c #3B3B3B",
"4	c #949494",
"5	c #3A3A3A",
"6	c #535353",
"7	c #373737",
"8	c #626262",
"9	c #424242",
"            ",
"  .+@  #$   ",
" .%&*  =-   ",
";>*,')!~{   ",
"  ]^{  ~/   ",
"  (^_  ~/   ",
"  >:-  ~/   ",
"  ><-  ~/   ",
"  >[=}|12}3 ",
"  >4- 56~7  ",
"  8{@  93   ",
"            "};
