/* XPM */
static char * updown2_xpm[] = {
"12 12 51 1",
" 	c None",
".	c #428F4A",
"+	c #5AAF62",
"@	c #3A8341",
"#	c #7F2C2C",
"$	c #7A2B2B",
"%	c #438F4A",
"&	c #63BC6C",
"*	c #5DB466",
"=	c #4CA454",
"-	c #A83B3B",
";	c #A03838",
">	c #3E8945",
",	c #44904B",
"'	c #4FA357",
")	c #5FB869",
"!	c #3A8242",
"~	c #2D6733",
"{	c #514B38",
"]	c #A8393A",
"^	c #9E3737",
"/	c #44914C",
"(	c #59B763",
"_	c #285B2E",
":	c #A63A3A",
"<	c #9C3636",
"[	c #45924C",
"}	c #295D2F",
"|	c #42914A",
"1	c #5FBA68",
"2	c #285C2E",
"3	c #43914A",
"4	c #55B55E",
"5	c #275D2E",
"6	c #53B35D",
"7	c #3B5C35",
"8	c #7C2F30",
"9	c #8B3030",
"0	c #AC3C3C",
"a	c #973535",
"b	c #802D2D",
"c	c #792A2A",
"d	c #419149",
"e	c #4FAE59",
"f	c #772929",
"g	c #AA3B3B",
"h	c #732727",
"i	c #466E43",
"j	c #3B8342",
"k	c #882F2F",
"l	c #7B2A2A",
"            ",
"  .+@  #$   ",
" %&*=  -;   ",
">,')!~{]^   ",
"  /(_  :<   ",
"  [(}  :<   ",
"  |12  :<   ",
"  345  :<   ",
"  |67890abc ",
"  de2 fg:h  ",
"  i_j  kl   ",
"            "};
